<svg xmlns="http://www.w3.org/2000/svg" version="1.1" xmlns:xlink="http://www.w3.org/1999/xlink" xmlns:svgjs="http://svgjs.dev/svgjs" viewBox="0 0 800 800" opacity="0.38"><defs><linearGradient x1="50%" y1="0%" x2="50%" y2="100%" id="cccoil-grad"><stop stop-color="hsl(206, 75%, 49%)" stop-opacity="1" offset="0%"></stop><stop stop-color="hsl(331, 90%, 56%)" stop-opacity="1" offset="100%"></stop></linearGradient></defs><g stroke="#cccccc" fill="none" stroke-linecap="round"><circle r="308" cx="400" cy="400" stroke-width="4.5" stroke-dasharray="1200 1935" transform="rotate(360, 400, 400)" opacity="0.05"></circle><circle r="294" cx="400" cy="400" stroke-width="4.5" stroke-dasharray="1091 1847" transform="rotate(343, 400, 400)" opacity="0.10"></circle><circle r="280" cx="400" cy="400" stroke-width="4.5" stroke-dasharray="987 1759" transform="rotate(326, 400, 400)" opacity="0.14"></circle><circle r="266" cx="400" cy="400" stroke-width="4.5" stroke-dasharray="888 1671" transform="rotate(309, 400, 400)" opacity="0.19"></circle><circle r="252" cx="400" cy="400" stroke-width="4.5" stroke-dasharray="795 1583" transform="rotate(291, 400, 400)" opacity="0.23"></circle><circle r="238" cx="400" cy="400" stroke-width="4.5" stroke-dasharray="706 1495" transform="rotate(274, 400, 400)" opacity="0.28"></circle><circle r="224" cx="400" cy="400" stroke-width="4.5" stroke-dasharray="623 1407" transform="rotate(257, 400, 400)" opacity="0.32"></circle><circle r="210" cx="400" cy="400" stroke-width="4.5" stroke-dasharray="545 1319" transform="rotate(240, 400, 400)" opacity="0.37"></circle><circle r="196" cx="400" cy="400" stroke-width="4.5" stroke-dasharray="473 1232" transform="rotate(223, 400, 400)" opacity="0.41"></circle><circle r="182" cx="400" cy="400" stroke-width="4.5" stroke-dasharray="405 1144" transform="rotate(206, 400, 400)" opacity="0.46"></circle><circle r="168" cx="400" cy="400" stroke-width="4.5" stroke-dasharray="343 1056" transform="rotate(189, 400, 400)" opacity="0.50"></circle><circle r="154" cx="400" cy="400" stroke-width="4.5" stroke-dasharray="286 968" transform="rotate(171, 400, 400)" opacity="0.55"></circle><circle r="140" cx="400" cy="400" stroke-width="4.5" stroke-dasharray="234 880" transform="rotate(154, 400, 400)" opacity="0.59"></circle><circle r="126" cx="400" cy="400" stroke-width="4.5" stroke-dasharray="187 792" transform="rotate(137, 400, 400)" opacity="0.64"></circle><circle r="112" cx="400" cy="400" stroke-width="4.5" stroke-dasharray="145 704" transform="rotate(120, 400, 400)" opacity="0.68"></circle><circle r="98" cx="400" cy="400" stroke-width="4.5" stroke-dasharray="109 616" transform="rotate(103, 400, 400)" opacity="0.73"></circle><circle r="84" cx="400" cy="400" stroke-width="4.5" stroke-dasharray="78 528" transform="rotate(86, 400, 400)" opacity="0.77"></circle><circle r="70" cx="400" cy="400" stroke-width="4.5" stroke-dasharray="52 440" transform="rotate(69, 400, 400)" opacity="0.82"></circle><circle r="56" cx="400" cy="400" stroke-width="4.5" stroke-dasharray="31 352" transform="rotate(51, 400, 400)" opacity="0.86"></circle><circle r="42" cx="400" cy="400" stroke-width="4.5" stroke-dasharray="16 264" transform="rotate(34, 400, 400)" opacity="0.91"></circle><circle r="28" cx="400" cy="400" stroke-width="4.5" stroke-dasharray="5 176" transform="rotate(17, 400, 400)" opacity="0.95"></circle><circle r="14" cx="400" cy="400" stroke-width="4.5" stroke-dasharray="0 88" opacity="1.00"></circle></g></svg>