<svg xmlns="http://www.w3.org/2000/svg" version="1.1" xmlns:xlink="http://www.w3.org/1999/xlink" xmlns:svgjs="http://svgjs.dev/svgjs" viewBox="0 0 800 800"><g fill="#e8e8e8"><circle r="0.5" cx="405" cy="400" opacity="1.00"></circle><circle r="0.5" cx="403" cy="405" opacity="1.00"></circle><circle r="0.5" cx="396" cy="406" opacity="0.99"></circle><circle r="0.5" cx="392" cy="399" opacity="0.99"></circle><circle r="0.5" cx="397" cy="391" opacity="0.99"></circle><circle r="0.5" cx="407" cy="393" opacity="0.99"></circle><circle r="0.5" cx="411" cy="404" opacity="0.98"></circle><circle r="0.5" cx="402" cy="413" opacity="0.98"></circle><circle r="0.5" cx="389" cy="408" opacity="0.98"></circle><circle r="0.5" cx="387" cy="393" opacity="0.97"></circle><circle r="0.5" cx="400" cy="384" opacity="0.97"></circle><circle r="0.5" cx="415" cy="392" opacity="0.97"></circle><circle r="0.5" cx="415" cy="411" opacity="0.97"></circle><circle r="0.5" cx="397" cy="419" opacity="0.96"></circle><circle r="0.5" cx="381" cy="406" opacity="0.96"></circle><circle r="0.5" cx="385" cy="385" opacity="0.96"></circle><circle r="0.5" cx="407" cy="379" opacity="0.95"></circle><circle r="0.5" cx="423" cy="396" opacity="0.95"></circle><circle r="0.5" cx="414" cy="420" opacity="0.95"></circle><circle r="1" cx="388" cy="423" opacity="0.95"></circle><circle r="1" cx="373" cy="400" opacity="0.94"></circle><circle r="1" cx="387" cy="375" opacity="0.94"></circle><circle r="1" cx="417" cy="377" opacity="0.94"></circle><circle r="1" cx="430" cy="405" opacity="0.93"></circle><circle r="1" cx="409" cy="430" opacity="0.93"></circle><circle r="1" cx="377" cy="423" opacity="0.93"></circle><circle r="1" cx="368" cy="389" opacity="0.93"></circle><circle r="1" cx="395" cy="366" opacity="0.92"></circle><circle r="1" cx="429" cy="379" opacity="0.92"></circle><circle r="1" cx="433" cy="417" opacity="0.92"></circle><circle r="1" cx="399" cy="438" opacity="0.91"></circle><circle r="1" cx="365" cy="417" opacity="0.91"></circle><circle r="1" cx="368" cy="376" opacity="0.91"></circle><circle r="1" cx="407" cy="359" opacity="0.90"></circle><circle r="1" cx="441" cy="388" opacity="0.90"></circle><circle r="1" cx="430" cy="431" opacity="0.90"></circle><circle r="1" cx="386" cy="442" opacity="0.90"></circle><circle r="1" cx="355" cy="406" opacity="0.89"></circle><circle r="1" cx="373" cy="362" opacity="0.89"></circle><circle r="1" cx="422" cy="358" opacity="0.89"></circle><circle r="1" cx="449" cy="401" opacity="0.88"></circle><circle r="1" cx="422" cy="445" opacity="0.88"></circle><circle r="1" cx="369" cy="441" opacity="0.88"></circle><circle r="1" cx="349" cy="391" opacity="0.88"></circle><circle r="1" cx="384" cy="349" opacity="0.87"></circle><circle r="1" cx="439" cy="362" opacity="0.87"></circle><circle r="1" cx="453" cy="418" opacity="0.87"></circle><circle r="1" cx="408" cy="456" opacity="0.86"></circle><circle r="1" cx="353" cy="433" opacity="0.86"></circle><circle r="1" cx="348" cy="372" opacity="0.86"></circle><circle r="1" cx="401" cy="340" opacity="0.86"></circle><circle r="1" cx="455" cy="373" opacity="0.85"></circle><circle r="1" cx="449" cy="438" opacity="0.85"></circle><circle r="1" cx="389" cy="462" opacity="0.85"></circle><circle r="1" cx="338" cy="418" opacity="0.84"></circle><circle r="1" cx="355" cy="353" opacity="0.84"></circle><circle r="1.5" cx="422" cy="337" opacity="0.84"></circle><circle r="1.5" cx="467" cy="391" opacity="0.84"></circle><circle r="1.5" cx="439" cy="457" opacity="0.83"></circle><circle r="1.5" cx="367" cy="461" opacity="0.83"></circle><circle r="1.5" cx="329" cy="398" opacity="0.83"></circle><circle r="1.5" cx="369" cy="335" opacity="0.82"></circle><circle r="1.5" cx="445" cy="342" opacity="0.82"></circle><circle r="1.5" cx="473" cy="414" opacity="0.82"></circle><circle r="1.5" cx="421" cy="472" opacity="0.82"></circle><circle r="1.5" cx="344" cy="453" opacity="0.81"></circle><circle r="1.5" cx="327" cy="374" opacity="0.81"></circle><circle r="1.5" cx="390" cy="322" opacity="0.81"></circle><circle r="1.5" cx="466" cy="355" opacity="0.80"></circle><circle r="1.5" cx="471" cy="439" opacity="0.80"></circle><circle r="1.5" cx="397" cy="482" opacity="0.80"></circle><circle r="1.5" cx="325" cy="435" opacity="0.80"></circle><circle r="1.5" cx="333" cy="348" opacity="0.79"></circle><circle r="1.5" cx="416" cy="316" opacity="0.79"></circle><circle r="1.5" cx="483" cy="376" opacity="0.79"></circle><circle r="1.5" cx="460" cy="464" opacity="0.78"></circle><circle r="1.5" cx="370" cy="483" opacity="0.78"></circle><circle r="1.5" cx="311" cy="411" opacity="0.78"></circle><circle r="1.5" cx="349" cy="325" opacity="0.78"></circle><circle r="1.5" cx="445" cy="320" opacity="0.77"></circle><circle r="1.5" cx="493" cy="403" opacity="0.77"></circle><circle r="1.5" cx="440" cy="485" opacity="0.77"></circle><circle r="1.5" cx="341" cy="475" opacity="0.76"></circle><circle r="1.5" cx="306" cy="381" opacity="0.76"></circle><circle r="1.5" cx="373" cy="306" opacity="0.76"></circle><circle r="1.5" cx="472" cy="333" opacity="0.76"></circle><circle r="1.5" cx="493" cy="434" opacity="0.75"></circle><circle r="1.5" cx="412" cy="500" opacity="0.75"></circle><circle r="1.5" cx="315" cy="457" opacity="0.75"></circle><circle r="1.5" cx="310" cy="350" opacity="0.74"></circle><circle r="1.5" cx="404" cy="296" opacity="0.74"></circle><circle r="1.5" cx="495" cy="356" opacity="0.74"></circle><circle r="2" cx="483" cy="466" opacity="0.74"></circle><circle r="2" cx="379" cy="505" opacity="0.73"></circle><circle r="2" cx="296" cy="429" opacity="0.73"></circle><circle r="2" cx="326" cy="319" opacity="0.73"></circle><circle r="2" cx="439" cy="296" opacity="0.72"></circle><circle r="2" cx="511" cy="387" opacity="0.72"></circle><circle r="2" cx="462" cy="494" opacity="0.72"></circle><circle r="2" cx="344" cy="499" opacity="0.71"></circle><circle r="2" cx="285" cy="395" opacity="0.71"></circle><circle r="2" cx="352" cy="294" opacity="0.71"></circle><circle r="2" cx="473" cy="308" opacity="0.71"></circle><circle r="2" cx="516" cy="424" opacity="0.70"></circle><circle r="2" cx="432" cy="515" opacity="0.70"></circle><circle r="2" cx="311" cy="481" opacity="0.70"></circle><circle r="2" cx="286" cy="357" opacity="0.69"></circle><circle r="2" cx="387" cy="278" opacity="0.69"></circle><circle r="2" cx="504" cy="332" opacity="0.69"></circle><circle r="2" cx="508" cy="462" opacity="0.69"></circle><circle r="2" cx="394" cy="526" opacity="0.68"></circle><circle r="2" cx="284" cy="452" opacity="0.68"></circle><circle r="2" cx="300" cy="320" opacity="0.68"></circle><circle r="2" cx="427" cy="273" opacity="0.67"></circle><circle r="2" cx="526" cy="366" opacity="0.67"></circle><circle r="2" cx="488" cy="498" opacity="0.67"></circle><circle r="2" cx="353" cy="524" opacity="0.67"></circle><circle r="2" cx="267" cy="414" opacity="0.66"></circle><circle r="2" cx="327" cy="287" opacity="0.66"></circle><circle r="2" cx="468" cy="282" opacity="0.66"></circle><circle r="2" cx="537" cy="407" opacity="0.65"></circle><circle r="2" cx="456" cy="526" opacity="0.65"></circle><circle r="2" cx="312" cy="508" opacity="0.65"></circle><circle r="2" cx="263" cy="371" opacity="0.65"></circle><circle r="2" cx="364" cy="263" opacity="0.64"></circle><circle r="2" cx="506" cy="305" opacity="0.64"></circle><circle r="2" cx="534" cy="452" opacity="0.64"></circle><circle r="2" cx="415" cy="544" opacity="0.63"></circle><circle r="2" cx="277" cy="479" opacity="0.63"></circle><circle r="2.5" cx="273" cy="326" opacity="0.63"></circle><circle r="2.5" cx="409" cy="252" opacity="0.63"></circle><circle r="2.5" cx="537" cy="340" opacity="0.62"></circle><circle r="2.5" cx="516" cy="495" opacity="0.62"></circle><circle r="2.5" cx="368" cy="548" opacity="0.62"></circle><circle r="2.5" cx="253" cy="438" opacity="0.61"></circle><circle r="2.5" cx="298" cy="285" opacity="0.61"></circle><circle r="2.5" cx="457" cy="256" opacity="0.61"></circle><circle r="2.5" cx="555" cy="385" opacity="0.61"></circle><circle r="2.5" cx="484" cy="532" opacity="0.60"></circle><circle r="2.5" cx="320" cy="536" opacity="0.60"></circle><circle r="2.5" cx="241" cy="390" opacity="0.60"></circle><circle r="2.5" cx="336" cy="253" opacity="0.59"></circle><circle r="2.5" cx="503" cy="276" opacity="0.59"></circle><circle r="2.5" cx="558" cy="435" opacity="0.59"></circle><circle r="2.5" cx="440" cy="558" opacity="0.59"></circle><circle r="2.5" cx="276" cy="509" opacity="0.58"></circle><circle r="2.5" cx="246" cy="339" opacity="0.58"></circle><circle r="2.5" cx="385" cy="234" opacity="0.58"></circle><circle r="2.5" cx="542" cy="310" opacity="0.57"></circle><circle r="2.5" cx="545" cy="486" opacity="0.57"></circle><circle r="2.5" cx="389" cy="570" opacity="0.57"></circle><circle r="2.5" cx="243" cy="467" opacity="0.57"></circle><circle r="2.5" cx="268" cy="290" opacity="0.56"></circle><circle r="2.5" cx="439" cy="231" opacity="0.56"></circle><circle r="2.5" cx="569" cy="358" opacity="0.56"></circle><circle r="2.5" cx="515" cy="532" opacity="0.55"></circle><circle r="2.5" cx="334" cy="564" opacity="0.55"></circle><circle r="2.5" cx="223" cy="416" opacity="0.55"></circle><circle r="2.5" cx="305" cy="248" opacity="0.54"></circle><circle r="2.5" cx="493" cy="246" opacity="0.54"></circle><circle r="2.5" cx="581" cy="413" opacity="0.54"></circle><circle r="2.5" cx="471" cy="568" opacity="0.54"></circle><circle r="2.5" cx="282" cy="540" opacity="0.53"></circle><circle r="2.5" cx="221" cy="358" opacity="0.53"></circle><circle r="2.5" cx="356" cy="220" opacity="0.53"></circle><circle r="2.5" cx="541" cy="278" opacity="0.52"></circle><circle r="3" cx="574" cy="471" opacity="0.52"></circle><circle r="3" cx="416" cy="588" opacity="0.52"></circle><circle r="3" cx="239" cy="500" opacity="0.52"></circle><circle r="3" cx="237" cy="301" opacity="0.51"></circle><circle r="3" cx="414" cy="209" opacity="0.51"></circle><circle r="3" cx="578" cy="326" opacity="0.51"></circle><circle r="3" cx="548" cy="526" opacity="0.50"></circle><circle r="3" cx="355" cy="590" opacity="0.50"></circle><circle r="3" cx="209" cy="446" opacity="0.50"></circle><circle r="3" cx="272" cy="250" opacity="0.50"></circle><circle r="3" cx="476" cy="216" opacity="0.49"></circle><circle r="3" cx="599" cy="384" opacity="0.49"></circle><circle r="3" cx="505" cy="571" opacity="0.49"></circle><circle r="3" cx="294" cy="572" opacity="0.48"></circle><circle r="3" cx="198" cy="384" opacity="0.48"></circle><circle r="3" cx="322" cy="211" opacity="0.48"></circle><circle r="3" cx="534" cy="244" opacity="0.48"></circle><circle r="3" cx="600" cy="449" opacity="0.47"></circle><circle r="3" cx="448" cy="602" opacity="0.47"></circle><circle r="3" cx="241" cy="535" opacity="0.47"></circle><circle r="3" cx="207" cy="319" opacity="0.46"></circle><circle r="3" cx="384" cy="190" opacity="0.46"></circle><circle r="3" cx="581" cy="290" opacity="0.46"></circle><circle r="3" cx="581" cy="512" opacity="0.46"></circle><circle r="3" cx="382" cy="613" opacity="0.45"></circle><circle r="3" cx="201" cy="481" opacity="0.45"></circle><circle r="3" cx="237" cy="259" opacity="0.45"></circle><circle r="3" cx="452" cy="189" opacity="0.44"></circle><circle r="3" cx="613" cy="351" opacity="0.44"></circle><circle r="3" cx="541" cy="568" opacity="0.44"></circle><circle r="3" cx="314" cy="603" opacity="0.44"></circle><circle r="3" cx="179" cy="415" opacity="0.43"></circle><circle r="3" cx="285" cy="209" opacity="0.43"></circle><circle r="3" cx="519" cy="210" opacity="0.43"></circle><circle r="3" cx="624" cy="420" opacity="0.42"></circle><circle r="3" cx="484" cy="610" opacity="0.42"></circle><circle r="3" cx="251" cy="571" opacity="0.42"></circle><circle r="3.5" cx="179" cy="344" opacity="0.42"></circle><circle r="3.5" cx="349" cy="176" opacity="0.41"></circle><circle r="3.5" cx="577" cy="252" opacity="0.41"></circle><circle r="3.5" cx="613" cy="491" opacity="0.41"></circle><circle r="3.5" cx="415" cy="632" opacity="0.40"></circle><circle r="3.5" cx="199" cy="519" opacity="0.40"></circle><circle r="3.5" cx="201" cy="274" opacity="0.40"></circle><circle r="3.5" cx="422" cy="165" opacity="0.40"></circle><circle r="3.5" cx="620" cy="313" opacity="0.39"></circle><circle r="3.5" cx="579" cy="557" opacity="0.39"></circle><circle r="3.5" cx="340" cy="632" opacity="0.39"></circle><circle r="3.5" cx="165" cy="452" opacity="0.38"></circle><circle r="3.5" cx="246" cy="214" opacity="0.38"></circle><circle r="3.5" cx="497" cy="177" opacity="0.38"></circle><circle r="3.5" cx="643" cy="385" opacity="0.38"></circle><circle r="3.5" cx="524" cy="611" opacity="0.37"></circle><circle r="3.5" cx="268" cy="607" opacity="0.37"></circle><circle r="3.5" cx="154" cy="376" opacity="0.37"></circle><circle r="3.5" cx="309" cy="169" opacity="0.36"></circle><circle r="3.5" cx="566" cy="214" opacity="0.36"></circle><circle r="3.5" cx="642" cy="463" opacity="0.36"></circle><circle r="3.5" cx="454" cy="646" opacity="0.35"></circle><circle r="3.5" cx="205" cy="560" opacity="0.35"></circle><circle r="3.5" cx="168" cy="298" opacity="0.35"></circle><circle r="3.5" cx="386" cy="146" opacity="0.35"></circle><circle r="3.5" cx="621" cy="271" opacity="0.34"></circle><circle r="3.5" cx="616" cy="539" opacity="0.34"></circle><circle r="3.5" cx="374" cy="657" opacity="0.34"></circle><circle r="3.5" cx="158" cy="493" opacity="0.33"></circle><circle r="3.5" cx="206" cy="226" opacity="0.33"></circle><circle r="3.5" cx="467" cy="147" opacity="0.33"></circle><circle r="3.5" cx="657" cy="345" opacity="0.33"></circle><circle r="3.5" cx="566" cy="605" opacity="0.32"></circle><circle r="3.5" cx="292" cy="642" opacity="0.32"></circle><circle r="3.5" cx="135" cy="414" opacity="0.32"></circle><circle r="3.5" cx="267" cy="169" opacity="0.31"></circle><circle r="4" cx="546" cy="175" opacity="0.31"></circle><circle r="4" cx="667" cy="429" opacity="0.31"></circle><circle r="4" cx="496" cy="652" opacity="0.31"></circle><circle r="4" cx="218" cy="601" opacity="0.30"></circle><circle r="4" cx="137" cy="329" opacity="0.30"></circle><circle r="4" cx="344" cy="132" opacity="0.30"></circle><circle r="4" cx="614" cy="228" opacity="0.29"></circle><circle r="4" cx="651" cy="513" opacity="0.29"></circle><circle r="4" cx="413" cy="676" opacity="0.29"></circle><circle r="4" cx="159" cy="538" opacity="0.29"></circle><circle r="4" cx="167" cy="247" opacity="0.28"></circle><circle r="4" cx="431" cy="122" opacity="0.28"></circle><circle r="4" cx="663" cy="301" opacity="0.28"></circle><circle r="4" cx="608" cy="590" opacity="0.27"></circle><circle r="4" cx="325" cy="673" opacity="0.27"></circle><circle r="4" cx="121" cy="457" opacity="0.27"></circle><circle r="4" cx="222" cy="177" opacity="0.27"></circle><circle r="4" cx="519" cy="139" opacity="0.26"></circle><circle r="4" cx="687" cy="388" opacity="0.26"></circle><circle r="4" cx="542" cy="651" opacity="0.26"></circle><circle r="4" cx="240" cy="642" opacity="0.25"></circle><circle r="4" cx="111" cy="367" opacity="0.25"></circle><circle r="4" cx="298" cy="126" opacity="0.25"></circle><circle r="4" cx="599" cy="184" opacity="0.25"></circle><circle r="4" cx="683" cy="479" opacity="0.24"></circle><circle r="4" cx="458" cy="690" opacity="0.24"></circle><circle r="4" cx="167" cy="584" opacity="0.24"></circle><circle r="4" cx="130" cy="275" opacity="0.23"></circle><circle r="4" cx="388" cy="102" opacity="0.23"></circle><circle r="4" cx="662" cy="254" opacity="0.23"></circle><circle r="4" cx="650" cy="567" opacity="0.23"></circle><circle r="4" cx="364" cy="700" opacity="0.22"></circle><circle r="4" cx="115" cy="504" opacity="0.22"></circle><circle r="4" cx="177" cy="193" opacity="0.22"></circle><circle r="4" cx="484" cy="106" opacity="0.21"></circle><circle r="4" cx="701" cy="341" opacity="0.21"></circle><circle r="4" cx="589" cy="642" opacity="0.21"></circle><circle r="4.5" cx="270" cy="680" opacity="0.21"></circle><circle r="4.5" cx="90" cy="411" opacity="0.20"></circle><circle r="4.5" cx="250" cy="128" opacity="0.20"></circle><circle r="4.5" cx="575" cy="142" opacity="0.20"></circle><circle r="4.5" cx="711" cy="439" opacity="0.19"></circle><circle r="4.5" cx="507" cy="695" opacity="0.19"></circle><circle r="4.5" cx="184" cy="630" opacity="0.19"></circle><circle r="4.5" cx="96" cy="312" opacity="0.18"></circle><circle r="4.5" cx="341" cy="88" opacity="0.18"></circle><circle r="4.5" cx="652" cy="205" opacity="0.18"></circle><circle r="4.5" cx="689" cy="536" opacity="0.18"></circle><circle r="4.5" cx="410" cy="721" opacity="0.17"></circle><circle r="4.5" cx="118" cy="555" opacity="0.17"></circle><circle r="4.5" cx="133" cy="218" opacity="0.17"></circle><circle r="4.5" cx="441" cy="79" opacity="0.16"></circle><circle r="4.5" cx="706" cy="291" opacity="0.16"></circle><circle r="4.5" cx="637" cy="624" opacity="0.16"></circle><circle r="4.5" cx="307" cy="714" opacity="0.16"></circle><circle r="4.5" cx="77" cy="460" opacity="0.15"></circle><circle r="4.5" cx="199" cy="139" opacity="0.15"></circle><circle r="4.5" cx="542" cy="102" opacity="0.15"></circle><circle r="4.5" cx="732" cy="391" opacity="0.14"></circle><circle r="4.5" cx="559" cy="693" opacity="0.14"></circle><circle r="4.5" cx="210" cy="675" opacity="0.14"></circle><circle r="4.5" cx="68" cy="356" opacity="0.14"></circle><circle r="4.5" cx="289" cy="83" opacity="0.13"></circle><circle r="4.5" cx="633" cy="156" opacity="0.13"></circle><circle r="4.5" cx="724" cy="497" opacity="0.13"></circle><circle r="4.5" cx="461" cy="734" opacity="0.12"></circle><circle r="4.5" cx="129" cy="606" opacity="0.12"></circle><circle r="4.5" cx="92" cy="252" opacity="0.12"></circle><circle r="4.5" cx="393" cy="57" opacity="0.12"></circle><circle r="4.5" cx="703" cy="238" opacity="0.11"></circle><circle r="4.5" cx="683" cy="597" opacity="0.11"></circle><circle r="4.5" cx="353" cy="743" opacity="0.11"></circle><circle r="4.5" cx="72" cy="514" opacity="0.10"></circle><circle r="4.5" cx="149" cy="159" opacity="0.10"></circle></g></svg>