<svg xmlns="http://www.w3.org/2000/svg" version="1.1" xmlns:xlink="http://www.w3.org/1999/xlink" xmlns:svgjs="http://svgjs.dev/svgjs" viewBox="0 0 800 800"><g fill="#1e1e1e"><circle r="0.5" cx="405" cy="400" opacity="1.00"></circle><circle r="0.5" cx="403" cy="405" opacity="1.00"></circle><circle r="0.5" cx="396" cy="406" opacity="1.00"></circle><circle r="0.5" cx="392" cy="399" opacity="1.00"></circle><circle r="0.5" cx="397" cy="391" opacity="0.99"></circle><circle r="0.5" cx="407" cy="393" opacity="0.99"></circle><circle r="0.5" cx="411" cy="404" opacity="0.99"></circle><circle r="0.5" cx="402" cy="413" opacity="0.99"></circle><circle r="0.5" cx="389" cy="408" opacity="0.99"></circle><circle r="0.5" cx="387" cy="393" opacity="0.99"></circle><circle r="0.5" cx="400" cy="384" opacity="0.99"></circle><circle r="0.5" cx="415" cy="392" opacity="0.99"></circle><circle r="0.5" cx="415" cy="411" opacity="0.98"></circle><circle r="0.5" cx="397" cy="419" opacity="0.98"></circle><circle r="0.5" cx="381" cy="406" opacity="0.98"></circle><circle r="0.5" cx="385" cy="385" opacity="0.98"></circle><circle r="0.5" cx="407" cy="379" opacity="0.98"></circle><circle r="0.5" cx="423" cy="396" opacity="0.98"></circle><circle r="0.5" cx="414" cy="420" opacity="0.98"></circle><circle r="0.5" cx="388" cy="423" opacity="0.98"></circle><circle r="0.5" cx="373" cy="400" opacity="0.97"></circle><circle r="0.5" cx="387" cy="375" opacity="0.97"></circle><circle r="0.5" cx="417" cy="377" opacity="0.97"></circle><circle r="0.5" cx="430" cy="405" opacity="0.97"></circle><circle r="0.5" cx="409" cy="430" opacity="0.97"></circle><circle r="0.5" cx="377" cy="423" opacity="0.97"></circle><circle r="0.5" cx="368" cy="389" opacity="0.97"></circle><circle r="0.5" cx="395" cy="366" opacity="0.97"></circle><circle r="0.5" cx="429" cy="379" opacity="0.96"></circle><circle r="0.5" cx="433" cy="417" opacity="0.96"></circle><circle r="0.5" cx="399" cy="438" opacity="0.96"></circle><circle r="0.5" cx="365" cy="417" opacity="0.96"></circle><circle r="0.5" cx="368" cy="376" opacity="0.96"></circle><circle r="0.5" cx="407" cy="359" opacity="0.96"></circle><circle r="0.5" cx="441" cy="388" opacity="0.96"></circle><circle r="0.5" cx="430" cy="431" opacity="0.96"></circle><circle r="0.5" cx="386" cy="442" opacity="0.95"></circle><circle r="0.5" cx="355" cy="406" opacity="0.95"></circle><circle r="0.5" cx="373" cy="362" opacity="0.95"></circle><circle r="0.5" cx="422" cy="358" opacity="0.95"></circle><circle r="0.5" cx="449" cy="401" opacity="0.95"></circle><circle r="0.5" cx="422" cy="445" opacity="0.95"></circle><circle r="0.5" cx="369" cy="441" opacity="0.95"></circle><circle r="1" cx="349" cy="391" opacity="0.95"></circle><circle r="1" cx="384" cy="349" opacity="0.94"></circle><circle r="1" cx="439" cy="362" opacity="0.94"></circle><circle r="1" cx="453" cy="418" opacity="0.94"></circle><circle r="1" cx="408" cy="456" opacity="0.94"></circle><circle r="1" cx="353" cy="433" opacity="0.94"></circle><circle r="1" cx="348" cy="372" opacity="0.94"></circle><circle r="1" cx="401" cy="340" opacity="0.94"></circle><circle r="1" cx="455" cy="373" opacity="0.94"></circle><circle r="1" cx="449" cy="438" opacity="0.93"></circle><circle r="1" cx="389" cy="462" opacity="0.93"></circle><circle r="1" cx="338" cy="418" opacity="0.93"></circle><circle r="1" cx="355" cy="353" opacity="0.93"></circle><circle r="1" cx="422" cy="337" opacity="0.93"></circle><circle r="1" cx="467" cy="391" opacity="0.93"></circle><circle r="1" cx="439" cy="457" opacity="0.93"></circle><circle r="1" cx="367" cy="461" opacity="0.93"></circle><circle r="1" cx="329" cy="398" opacity="0.92"></circle><circle r="1" cx="369" cy="335" opacity="0.92"></circle><circle r="1" cx="445" cy="342" opacity="0.92"></circle><circle r="1" cx="473" cy="414" opacity="0.92"></circle><circle r="1" cx="421" cy="472" opacity="0.92"></circle><circle r="1" cx="344" cy="453" opacity="0.92"></circle><circle r="1" cx="327" cy="374" opacity="0.92"></circle><circle r="1" cx="390" cy="322" opacity="0.92"></circle><circle r="1" cx="466" cy="355" opacity="0.91"></circle><circle r="1" cx="471" cy="439" opacity="0.91"></circle><circle r="1" cx="397" cy="482" opacity="0.91"></circle><circle r="1" cx="325" cy="435" opacity="0.91"></circle><circle r="1" cx="333" cy="348" opacity="0.91"></circle><circle r="1" cx="416" cy="316" opacity="0.91"></circle><circle r="1" cx="483" cy="376" opacity="0.91"></circle><circle r="1" cx="460" cy="464" opacity="0.91"></circle><circle r="1" cx="370" cy="483" opacity="0.90"></circle><circle r="1" cx="311" cy="411" opacity="0.90"></circle><circle r="1" cx="349" cy="325" opacity="0.90"></circle><circle r="1" cx="445" cy="320" opacity="0.90"></circle><circle r="1" cx="493" cy="403" opacity="0.90"></circle><circle r="1" cx="440" cy="485" opacity="0.90"></circle><circle r="1" cx="341" cy="475" opacity="0.90"></circle><circle r="1" cx="306" cy="381" opacity="0.90"></circle><circle r="1" cx="373" cy="306" opacity="0.89"></circle><circle r="1" cx="472" cy="333" opacity="0.89"></circle><circle r="1" cx="493" cy="434" opacity="0.89"></circle><circle r="1" cx="412" cy="500" opacity="0.89"></circle><circle r="1" cx="315" cy="457" opacity="0.89"></circle><circle r="1" cx="310" cy="350" opacity="0.89"></circle><circle r="1" cx="404" cy="296" opacity="0.89"></circle><circle r="1" cx="495" cy="356" opacity="0.89"></circle><circle r="1" cx="483" cy="466" opacity="0.88"></circle><circle r="1" cx="379" cy="505" opacity="0.88"></circle><circle r="1" cx="296" cy="429" opacity="0.88"></circle><circle r="1" cx="326" cy="319" opacity="0.88"></circle><circle r="1" cx="439" cy="296" opacity="0.88"></circle><circle r="1" cx="511" cy="387" opacity="0.88"></circle><circle r="1" cx="462" cy="494" opacity="0.88"></circle><circle r="1" cx="344" cy="499" opacity="0.88"></circle><circle r="1" cx="285" cy="395" opacity="0.87"></circle><circle r="1" cx="352" cy="294" opacity="0.87"></circle><circle r="1" cx="473" cy="308" opacity="0.87"></circle><circle r="1" cx="516" cy="424" opacity="0.87"></circle><circle r="1" cx="432" cy="515" opacity="0.87"></circle><circle r="1" cx="311" cy="481" opacity="0.87"></circle><circle r="1" cx="286" cy="357" opacity="0.87"></circle><circle r="1" cx="387" cy="278" opacity="0.87"></circle><circle r="1" cx="504" cy="332" opacity="0.86"></circle><circle r="1" cx="508" cy="462" opacity="0.86"></circle><circle r="1" cx="394" cy="526" opacity="0.86"></circle><circle r="1" cx="284" cy="452" opacity="0.86"></circle><circle r="1" cx="300" cy="320" opacity="0.86"></circle><circle r="1" cx="427" cy="273" opacity="0.86"></circle><circle r="1" cx="526" cy="366" opacity="0.86"></circle><circle r="1" cx="488" cy="498" opacity="0.86"></circle><circle r="1" cx="353" cy="524" opacity="0.85"></circle><circle r="1" cx="267" cy="414" opacity="0.85"></circle><circle r="1" cx="327" cy="287" opacity="0.85"></circle><circle r="1" cx="468" cy="282" opacity="0.85"></circle><circle r="1" cx="537" cy="407" opacity="0.85"></circle><circle r="1" cx="456" cy="526" opacity="0.85"></circle><circle r="1" cx="312" cy="508" opacity="0.85"></circle><circle r="1" cx="263" cy="371" opacity="0.85"></circle><circle r="1" cx="364" cy="263" opacity="0.84"></circle><circle r="1" cx="506" cy="305" opacity="0.84"></circle><circle r="1" cx="534" cy="452" opacity="0.84"></circle><circle r="1.5" cx="415" cy="544" opacity="0.84"></circle><circle r="1.5" cx="277" cy="479" opacity="0.84"></circle><circle r="1.5" cx="273" cy="326" opacity="0.84"></circle><circle r="1.5" cx="409" cy="252" opacity="0.84"></circle><circle r="1.5" cx="537" cy="340" opacity="0.84"></circle><circle r="1.5" cx="516" cy="495" opacity="0.83"></circle><circle r="1.5" cx="368" cy="548" opacity="0.83"></circle><circle r="1.5" cx="253" cy="438" opacity="0.83"></circle><circle r="1.5" cx="298" cy="285" opacity="0.83"></circle><circle r="1.5" cx="457" cy="256" opacity="0.83"></circle><circle r="1.5" cx="555" cy="385" opacity="0.83"></circle><circle r="1.5" cx="484" cy="532" opacity="0.83"></circle><circle r="1.5" cx="320" cy="536" opacity="0.83"></circle><circle r="1.5" cx="241" cy="390" opacity="0.82"></circle><circle r="1.5" cx="336" cy="253" opacity="0.82"></circle><circle r="1.5" cx="503" cy="276" opacity="0.82"></circle><circle r="1.5" cx="558" cy="435" opacity="0.82"></circle><circle r="1.5" cx="440" cy="558" opacity="0.82"></circle><circle r="1.5" cx="276" cy="509" opacity="0.82"></circle><circle r="1.5" cx="246" cy="339" opacity="0.82"></circle><circle r="1.5" cx="385" cy="234" opacity="0.82"></circle><circle r="1.5" cx="542" cy="310" opacity="0.81"></circle><circle r="1.5" cx="545" cy="486" opacity="0.81"></circle><circle r="1.5" cx="389" cy="570" opacity="0.81"></circle><circle r="1.5" cx="243" cy="467" opacity="0.81"></circle><circle r="1.5" cx="268" cy="290" opacity="0.81"></circle><circle r="1.5" cx="439" cy="231" opacity="0.81"></circle><circle r="1.5" cx="569" cy="358" opacity="0.81"></circle><circle r="1.5" cx="515" cy="532" opacity="0.81"></circle><circle r="1.5" cx="334" cy="564" opacity="0.80"></circle><circle r="1.5" cx="223" cy="416" opacity="0.80"></circle><circle r="1.5" cx="305" cy="248" opacity="0.80"></circle><circle r="1.5" cx="493" cy="246" opacity="0.80"></circle><circle r="1.5" cx="581" cy="413" opacity="0.80"></circle><circle r="1.5" cx="471" cy="568" opacity="0.80"></circle><circle r="1.5" cx="282" cy="540" opacity="0.80"></circle><circle r="1.5" cx="221" cy="358" opacity="0.80"></circle><circle r="1.5" cx="356" cy="220" opacity="0.79"></circle><circle r="1.5" cx="541" cy="278" opacity="0.79"></circle><circle r="1.5" cx="574" cy="471" opacity="0.79"></circle><circle r="1.5" cx="416" cy="588" opacity="0.79"></circle><circle r="1.5" cx="239" cy="500" opacity="0.79"></circle><circle r="1.5" cx="237" cy="301" opacity="0.79"></circle><circle r="1.5" cx="414" cy="209" opacity="0.79"></circle><circle r="1.5" cx="578" cy="326" opacity="0.79"></circle><circle r="1.5" cx="548" cy="526" opacity="0.78"></circle><circle r="1.5" cx="355" cy="590" opacity="0.78"></circle><circle r="1.5" cx="209" cy="446" opacity="0.78"></circle><circle r="1.5" cx="272" cy="250" opacity="0.78"></circle><circle r="1.5" cx="476" cy="216" opacity="0.78"></circle><circle r="1.5" cx="599" cy="384" opacity="0.78"></circle><circle r="1.5" cx="505" cy="571" opacity="0.78"></circle><circle r="1.5" cx="294" cy="572" opacity="0.78"></circle><circle r="1.5" cx="198" cy="384" opacity="0.77"></circle><circle r="1.5" cx="322" cy="211" opacity="0.77"></circle><circle r="1.5" cx="534" cy="244" opacity="0.77"></circle><circle r="1.5" cx="600" cy="449" opacity="0.77"></circle><circle r="1.5" cx="448" cy="602" opacity="0.77"></circle><circle r="1.5" cx="241" cy="535" opacity="0.77"></circle><circle r="1.5" cx="207" cy="319" opacity="0.77"></circle><circle r="1.5" cx="384" cy="190" opacity="0.77"></circle><circle r="1.5" cx="581" cy="290" opacity="0.76"></circle><circle r="1.5" cx="581" cy="512" opacity="0.76"></circle><circle r="1.5" cx="382" cy="613" opacity="0.76"></circle><circle r="1.5" cx="201" cy="481" opacity="0.76"></circle><circle r="1.5" cx="237" cy="259" opacity="0.76"></circle><circle r="1.5" cx="452" cy="189" opacity="0.76"></circle><circle r="1.5" cx="613" cy="351" opacity="0.76"></circle><circle r="1.5" cx="541" cy="568" opacity="0.76"></circle><circle r="1.5" cx="314" cy="603" opacity="0.75"></circle><circle r="1.5" cx="179" cy="415" opacity="0.75"></circle><circle r="1.5" cx="285" cy="209" opacity="0.75"></circle><circle r="1.5" cx="519" cy="210" opacity="0.75"></circle><circle r="1.5" cx="624" cy="420" opacity="0.75"></circle><circle r="1.5" cx="484" cy="610" opacity="0.75"></circle><circle r="1.5" cx="251" cy="571" opacity="0.75"></circle><circle r="1.5" cx="179" cy="344" opacity="0.75"></circle><circle r="1.5" cx="349" cy="176" opacity="0.74"></circle><circle r="1.5" cx="577" cy="252" opacity="0.74"></circle><circle r="1.5" cx="613" cy="491" opacity="0.74"></circle><circle r="1.5" cx="415" cy="632" opacity="0.74"></circle><circle r="1.5" cx="199" cy="519" opacity="0.74"></circle><circle r="1.5" cx="201" cy="274" opacity="0.74"></circle><circle r="1.5" cx="422" cy="165" opacity="0.74"></circle><circle r="1.5" cx="620" cy="313" opacity="0.74"></circle><circle r="2" cx="579" cy="557" opacity="0.73"></circle><circle r="2" cx="340" cy="632" opacity="0.73"></circle><circle r="2" cx="165" cy="452" opacity="0.73"></circle><circle r="2" cx="246" cy="214" opacity="0.73"></circle><circle r="2" cx="497" cy="177" opacity="0.73"></circle><circle r="2" cx="643" cy="385" opacity="0.73"></circle><circle r="2" cx="524" cy="611" opacity="0.73"></circle><circle r="2" cx="268" cy="607" opacity="0.73"></circle><circle r="2" cx="154" cy="376" opacity="0.72"></circle><circle r="2" cx="309" cy="169" opacity="0.72"></circle><circle r="2" cx="566" cy="214" opacity="0.72"></circle><circle r="2" cx="642" cy="463" opacity="0.72"></circle><circle r="2" cx="454" cy="646" opacity="0.72"></circle><circle r="2" cx="205" cy="560" opacity="0.72"></circle><circle r="2" cx="168" cy="298" opacity="0.72"></circle><circle r="2" cx="386" cy="146" opacity="0.72"></circle><circle r="2" cx="621" cy="271" opacity="0.71"></circle><circle r="2" cx="616" cy="539" opacity="0.71"></circle><circle r="2" cx="374" cy="657" opacity="0.71"></circle><circle r="2" cx="158" cy="493" opacity="0.71"></circle><circle r="2" cx="206" cy="226" opacity="0.71"></circle><circle r="2" cx="467" cy="147" opacity="0.71"></circle><circle r="2" cx="657" cy="345" opacity="0.71"></circle><circle r="2" cx="566" cy="605" opacity="0.71"></circle><circle r="2" cx="292" cy="642" opacity="0.70"></circle><circle r="2" cx="135" cy="414" opacity="0.70"></circle><circle r="2" cx="267" cy="169" opacity="0.70"></circle><circle r="2" cx="546" cy="175" opacity="0.70"></circle><circle r="2" cx="667" cy="429" opacity="0.70"></circle><circle r="2" cx="496" cy="652" opacity="0.70"></circle><circle r="2" cx="218" cy="601" opacity="0.70"></circle><circle r="2" cx="137" cy="329" opacity="0.70"></circle><circle r="2" cx="344" cy="132" opacity="0.69"></circle><circle r="2" cx="614" cy="228" opacity="0.69"></circle><circle r="2" cx="651" cy="513" opacity="0.69"></circle><circle r="2" cx="413" cy="676" opacity="0.69"></circle><circle r="2" cx="159" cy="538" opacity="0.69"></circle><circle r="2" cx="167" cy="247" opacity="0.69"></circle><circle r="2" cx="431" cy="122" opacity="0.69"></circle><circle r="2" cx="663" cy="301" opacity="0.69"></circle><circle r="2" cx="608" cy="590" opacity="0.68"></circle><circle r="2" cx="325" cy="673" opacity="0.68"></circle><circle r="2" cx="121" cy="457" opacity="0.68"></circle><circle r="2" cx="222" cy="177" opacity="0.68"></circle><circle r="2" cx="519" cy="139" opacity="0.68"></circle><circle r="2" cx="687" cy="388" opacity="0.68"></circle><circle r="2" cx="542" cy="651" opacity="0.68"></circle><circle r="2" cx="240" cy="642" opacity="0.68"></circle><circle r="2" cx="111" cy="367" opacity="0.67"></circle><circle r="2" cx="298" cy="126" opacity="0.67"></circle><circle r="2" cx="599" cy="184" opacity="0.67"></circle><circle r="2" cx="683" cy="479" opacity="0.67"></circle><circle r="2" cx="458" cy="690" opacity="0.67"></circle><circle r="2" cx="167" cy="584" opacity="0.67"></circle><circle r="2" cx="130" cy="275" opacity="0.67"></circle><circle r="2" cx="388" cy="102" opacity="0.67"></circle><circle r="2" cx="662" cy="254" opacity="0.66"></circle><circle r="2" cx="650" cy="567" opacity="0.66"></circle><circle r="2" cx="364" cy="700" opacity="0.66"></circle><circle r="2" cx="115" cy="504" opacity="0.66"></circle><circle r="2" cx="177" cy="193" opacity="0.66"></circle><circle r="2" cx="484" cy="106" opacity="0.66"></circle><circle r="2" cx="701" cy="341" opacity="0.66"></circle><circle r="2" cx="589" cy="642" opacity="0.66"></circle><circle r="2" cx="270" cy="680" opacity="0.65"></circle><circle r="2" cx="90" cy="411" opacity="0.65"></circle><circle r="2" cx="250" cy="128" opacity="0.65"></circle><circle r="2" cx="575" cy="142" opacity="0.65"></circle><circle r="2" cx="711" cy="439" opacity="0.65"></circle><circle r="2" cx="507" cy="695" opacity="0.65"></circle><circle r="2" cx="184" cy="630" opacity="0.65"></circle><circle r="2" cx="96" cy="312" opacity="0.65"></circle><circle r="2" cx="341" cy="88" opacity="0.64"></circle><circle r="2" cx="652" cy="205" opacity="0.64"></circle><circle r="2" cx="689" cy="536" opacity="0.64"></circle><circle r="2" cx="410" cy="721" opacity="0.64"></circle><circle r="2" cx="118" cy="555" opacity="0.64"></circle><circle r="2" cx="133" cy="218" opacity="0.64"></circle><circle r="2" cx="441" cy="79" opacity="0.64"></circle><circle r="2" cx="706" cy="291" opacity="0.64"></circle><circle r="2" cx="637" cy="624" opacity="0.63"></circle><circle r="2" cx="307" cy="714" opacity="0.63"></circle><circle r="2" cx="77" cy="460" opacity="0.63"></circle><circle r="2" cx="199" cy="139" opacity="0.63"></circle><circle r="2" cx="542" cy="102" opacity="0.63"></circle><circle r="2.5" cx="732" cy="391" opacity="0.63"></circle><circle r="2.5" cx="559" cy="693" opacity="0.63"></circle><circle r="2.5" cx="210" cy="675" opacity="0.63"></circle><circle r="2.5" cx="68" cy="356" opacity="0.62"></circle><circle r="2.5" cx="289" cy="83" opacity="0.62"></circle><circle r="2.5" cx="633" cy="156" opacity="0.62"></circle><circle r="2.5" cx="724" cy="497" opacity="0.62"></circle><circle r="2.5" cx="461" cy="734" opacity="0.62"></circle><circle r="2.5" cx="129" cy="606" opacity="0.62"></circle><circle r="2.5" cx="92" cy="252" opacity="0.62"></circle><circle r="2.5" cx="393" cy="57" opacity="0.62"></circle><circle r="2.5" cx="703" cy="238" opacity="0.61"></circle><circle r="2.5" cx="683" cy="597" opacity="0.61"></circle><circle r="2.5" cx="353" cy="743" opacity="0.61"></circle><circle r="2.5" cx="72" cy="514" opacity="0.61"></circle><circle r="2.5" cx="149" cy="159" opacity="0.61"></circle><circle r="2.5" cx="502" cy="66" opacity="0.61"></circle><circle r="2.5" cx="745" cy="339" opacity="0.61"></circle><circle r="2.5" cx="612" cy="681" opacity="0.61"></circle><circle r="2.5" cx="245" cy="717" opacity="0.60"></circle><circle r="2.5" cx="46" cy="406" opacity="0.60"></circle><circle r="2.5" cx="234" cy="87" opacity="0.60"></circle><circle r="2.5" cx="605" cy="109" opacity="0.60"></circle><circle r="2.5" cx="753" cy="450" opacity="0.60"></circle><circle r="2.5" cx="516" cy="739" opacity="0.60"></circle><circle r="2.5" cx="150" cy="658" opacity="0.60"></circle><circle r="2.5" cx="56" cy="294" opacity="0.60"></circle><circle r="2.5" cx="339" cy="44" opacity="0.59"></circle><circle r="2.5" cx="690" cy="183" opacity="0.59"></circle><circle r="2.5" cx="726" cy="561" opacity="0.59"></circle><circle r="2.5" cx="405" cy="765" opacity="0.59"></circle><circle r="2.5" cx="76" cy="570" opacity="0.59"></circle><circle r="2.5" cx="101" cy="188" opacity="0.59"></circle><circle r="2.5" cx="454" cy="36" opacity="0.59"></circle><circle r="2.5" cx="750" cy="282" opacity="0.59"></circle><circle r="2.5" cx="664" cy="659" opacity="0.58"></circle><circle r="2.5" cx="289" cy="754" opacity="0.58"></circle><circle r="2.5" cx="33" cy="462" opacity="0.58"></circle><circle r="2.5" cx="178" cy="100" opacity="0.58"></circle><circle r="2.5" cx="567" cy="65" opacity="0.58"></circle><circle r="2.5" cx="776" cy="397" opacity="0.58"></circle><circle r="2.5" cx="574" cy="734" opacity="0.58"></circle><circle r="2.5" cx="180" cy="707" opacity="0.58"></circle><circle r="2.5" cx="25" cy="343" opacity="0.57"></circle><circle r="2.5" cx="280" cy="39" opacity="0.57"></circle><circle r="2.5" cx="668" cy="129" opacity="0.57"></circle><circle r="2.5" cx="764" cy="516" opacity="0.57"></circle><circle r="2.5" cx="462" cy="778" opacity="0.57"></circle><circle r="2.5" cx="90" cy="627" opacity="0.57"></circle><circle r="2.5" cx="56" cy="226" opacity="0.57"></circle><circle r="2.5" cx="399" cy="13" opacity="0.57"></circle><circle r="2.5" cx="745" cy="223" opacity="0.56"></circle><circle r="2.5" cx="715" cy="628" opacity="0.56"></circle><circle r="2.5" cx="340" cy="785" opacity="0.56"></circle><circle r="2.5" cx="28" cy="522" opacity="0.56"></circle><circle r="2.5" cx="122" cy="123" opacity="0.56"></circle><circle r="2.5" cx="521" cy="26" opacity="0.56"></circle><circle r="2.5" cx="790" cy="338" opacity="0.56"></circle><circle r="2.5" cx="632" cy="720" opacity="0.56"></circle><circle r="2.5" cx="220" cy="753" opacity="0.55"></circle><circle r="2.5" cx="2" cy="400" opacity="0.55"></circle><circle r="2.5" cx="219" cy="44" opacity="0.55"></circle><circle r="2.5" cx="636" cy="77" opacity="0.55"></circle><circle r="2.5" cx="796" cy="464" opacity="0.55"></circle><circle r="2.5" cx="523" cy="783" opacity="0.55"></circle><circle r="2.5" cx="114" cy="684" opacity="0.55"></circle><circle r="2.5" cx="16" cy="274" opacity="0.55"></circle><circle r="2.5" cx="338" cy="-1" opacity="0.54"></circle><circle r="2.5" cx="730" cy="163" opacity="0.54"></circle><circle r="2.5" cx="762" cy="587" opacity="0.54"></circle><circle r="2.5" cx="398" cy="809" opacity="0.54"></circle><circle r="2.5" cx="34" cy="584" opacity="0.54"></circle><circle r="2.5" cx="69" cy="156" opacity="0.54"></circle><circle r="2.5" cx="467" cy="-6" opacity="0.54"></circle><circle r="2.5" cx="794" cy="275" opacity="0.54"></circle><circle r="2.5" cx="691" cy="695" opacity="0.53"></circle><circle r="2.5" cx="269" cy="794" opacity="0.53"></circle><circle r="2.5" cx="-12" cy="462" opacity="0.53"></circle><circle r="2.5" cx="158" cy="60" opacity="0.53"></circle><circle r="2.5" cx="594" cy="29" opacity="0.53"></circle><circle r="2.5" cx="820" cy="404" opacity="0.53"></circle><circle r="2.5" cx="587" cy="777" opacity="0.53"></circle><circle r="2.5" cx="148" cy="739" opacity="0.53"></circle><circle r="2.5" cx="-17" cy="329" opacity="0.52"></circle><circle r="3" cx="274" cy="-5" opacity="0.52"></circle><circle r="3" cx="704" cy="103" opacity="0.52"></circle><circle r="3" cx="804" cy="537" opacity="0.52"></circle><circle r="3" cx="461" cy="823" opacity="0.52"></circle><circle r="3" cx="50" cy="647" opacity="0.52"></circle><circle r="3" cx="20" cy="200" opacity="0.52"></circle><circle r="3" cx="406" cy="-31" opacity="0.52"></circle><circle r="3" cx="788" cy="210" opacity="0.51"></circle><circle r="3" cx="746" cy="660" opacity="0.51"></circle><circle r="3" cx="325" cy="828" opacity="0.51"></circle><circle r="3" cx="-16" cy="528" opacity="0.51"></circle><circle r="3" cx="97" cy="87" opacity="0.51"></circle><circle r="3" cx="542" cy="-14" opacity="0.51"></circle><circle r="3" cx="834" cy="339" opacity="0.51"></circle><circle r="3" cx="652" cy="760" opacity="0.51"></circle><circle r="3" cx="193" cy="789" opacity="0.50"></circle><circle r="3" cx="-42" cy="392" opacity="0.50"></circle><circle r="3" cx="207" cy="2" opacity="0.50"></circle><circle r="3" cx="668" cy="46" opacity="0.50"></circle><circle r="3" cx="838" cy="478" opacity="0.50"></circle><circle r="3" cx="529" cy="827" opacity="0.50"></circle><circle r="3" cx="77" cy="710" opacity="0.50"></circle><circle r="3" cx="-23" cy="252" opacity="0.50"></circle><circle r="3" cx="339" cy="-45" opacity="0.49"></circle><circle r="3" cx="770" cy="143" opacity="0.49"></circle><circle r="3" cx="798" cy="614" opacity="0.49"></circle><circle r="3" cx="390" cy="853" opacity="0.49"></circle><circle r="3" cx="-9" cy="596" opacity="0.49"></circle><circle r="3" cx="38" cy="124" opacity="0.49"></circle><circle r="3" cx="482" cy="-49" opacity="0.49"></circle><circle r="3" cx="838" cy="270" opacity="0.49"></circle><circle r="3" cx="716" cy="732" opacity="0.48"></circle><circle r="3" cx="247" cy="833" opacity="0.48"></circle><circle r="3" cx="-56" cy="460" opacity="0.48"></circle><circle r="3" cx="139" cy="20" opacity="0.48"></circle><circle r="3" cx="621" cy="-6" opacity="0.48"></circle><circle r="3" cx="864" cy="413" opacity="0.48"></circle><circle r="3" cx="599" cy="820" opacity="0.48"></circle><circle r="3" cx="116" cy="769" opacity="0.48"></circle><circle r="3" cx="-59" cy="314" opacity="0.47"></circle><circle r="3" cx="268" cy="-49" opacity="0.47"></circle><circle r="3" cx="741" cy="78" opacity="0.47"></circle><circle r="3" cx="843" cy="559" opacity="0.47"></circle><circle r="3" cx="459" cy="868" opacity="0.47"></circle><circle r="3" cx="9" cy="666" opacity="0.47"></circle><circle r="3" cx="-15" cy="172" opacity="0.47"></circle><circle r="3" cx="415" cy="-74" opacity="0.47"></circle><circle r="3" cx="831" cy="198" opacity="0.46"></circle><circle r="3" cx="776" cy="693" opacity="0.46"></circle><circle r="3" cx="310" cy="869" opacity="0.46"></circle><circle r="3" cx="-60" cy="533" opacity="0.46"></circle><circle r="3" cx="72" cy="49" opacity="0.46"></circle><circle r="3" cx="564" cy="-52" opacity="0.46"></circle><circle r="3" cx="879" cy="341" opacity="0.46"></circle><circle r="3" cx="670" cy="801" opacity="0.46"></circle><circle r="3" cx="165" cy="824" opacity="0.45"></circle><circle r="3" cx="-85" cy="382" opacity="0.45"></circle><circle r="3" cx="195" cy="-42" opacity="0.45"></circle><circle r="3" cx="701" cy="16" opacity="0.45"></circle><circle r="3" cx="880" cy="495" opacity="0.45"></circle><circle r="3" cx="534" cy="872" opacity="0.45"></circle><circle r="3" cx="40" cy="734" opacity="0.45"></circle><circle r="3" cx="-62" cy="230" opacity="0.45"></circle><circle r="3" cx="342" cy="-90" opacity="0.44"></circle><circle r="3" cx="811" cy="126" opacity="0.44"></circle><circle r="3" cx="832" cy="643" opacity="0.44"></circle><circle r="3" cx="380" cy="896" opacity="0.44"></circle><circle r="3" cx="-52" cy="608" opacity="0.44"></circle><circle r="3" cx="9" cy="90" opacity="0.44"></circle><circle r="3" cx="499" cy="-90" opacity="0.44"></circle><circle r="3" cx="883" cy="266" opacity="0.44"></circle><circle r="3" cx="740" cy="770" opacity="0.43"></circle><circle r="3" cx="224" cy="871" opacity="0.43"></circle><circle r="3" cx="-101" cy="457" opacity="0.43"></circle><circle r="3" cx="121" cy="-22" opacity="0.43"></circle><circle r="3" cx="650" cy="-41" opacity="0.43"></circle><circle r="3" cx="907" cy="423" opacity="0.43"></circle><circle r="3" cx="610" cy="863" opacity="0.43"></circle><circle r="3" cx="82" cy="798" opacity="0.43"></circle><circle r="3" cx="-100" cy="297" opacity="0.42"></circle><circle r="3" cx="265" cy="-94" opacity="0.42"></circle><circle r="3" cx="780" cy="55" opacity="0.42"></circle><circle r="3" cx="881" cy="582" opacity="0.42"></circle><circle r="3" cx="456" cy="912" opacity="0.42"></circle><circle r="3" cx="-32" cy="683" opacity="0.42"></circle><circle r="3.5" cx="-49" cy="143" opacity="0.42"></circle><circle r="3.5" cx="426" cy="-118" opacity="0.42"></circle><circle r="3.5" cx="874" cy="187" opacity="0.41"></circle><circle r="3.5" cx="805" cy="727" opacity="0.41"></circle><circle r="3.5" cx="292" cy="911" opacity="0.41"></circle><circle r="3.5" cx="-105" cy="536" opacity="0.41"></circle><circle r="3.5" cx="49" cy="11" opacity="0.41"></circle><circle r="3.5" cx="588" cy="-90" opacity="0.41"></circle><circle r="3.5" cx="924" cy="345" opacity="0.41"></circle><circle r="3.5" cx="687" cy="843" opacity="0.41"></circle><circle r="3.5" cx="135" cy="857" opacity="0.40"></circle><circle r="3.5" cx="-129" cy="371" opacity="0.40"></circle><circle r="3.5" cx="185" cy="-85" opacity="0.40"></circle><circle r="3.5" cx="736" cy="-13" opacity="0.40"></circle><circle r="3.5" cx="921" cy="512" opacity="0.40"></circle><circle r="3.5" cx="536" cy="916" opacity="0.40"></circle><circle r="3.5" cx="1" cy="757" opacity="0.40"></circle><circle r="3.5" cx="-100" cy="206" opacity="0.40"></circle><circle r="3.5" cx="346" cy="-135" opacity="0.39"></circle><circle r="3.5" cx="853" cy="109" opacity="0.39"></circle><circle r="3.5" cx="866" cy="672" opacity="0.39"></circle><circle r="3.5" cx="368" cy="940" opacity="0.39"></circle><circle r="3.5" cx="-96" cy="617" opacity="0.39"></circle><circle r="3.5" cx="-20" cy="55" opacity="0.39"></circle><circle r="3.5" cx="517" cy="-131" opacity="0.39"></circle><circle r="3.5" cx="928" cy="263" opacity="0.39"></circle><circle r="3.5" cx="762" cy="809" opacity="0.38"></circle><circle r="3.5" cx="199" cy="909" opacity="0.38"></circle><circle r="3.5" cx="-146" cy="452" opacity="0.38"></circle><circle r="3.5" cx="105" cy="-64" opacity="0.38"></circle><circle r="3.5" cx="680" cy="-74" opacity="0.38"></circle><circle r="3.5" cx="951" cy="435" opacity="0.38"></circle><circle r="3.5" cx="619" cy="907" opacity="0.38"></circle><circle r="3.5" cx="47" cy="826" opacity="0.38"></circle><circle r="3.5" cx="-141" cy="278" opacity="0.37"></circle><circle r="3.5" cx="263" cy="-139" opacity="0.37"></circle><circle r="3.5" cx="819" cy="32" opacity="0.37"></circle><circle r="3.5" cx="919" cy="607" opacity="0.37"></circle><circle r="3.5" cx="451" cy="957" opacity="0.37"></circle><circle r="3.5" cx="-74" cy="699" opacity="0.37"></circle><circle r="3.5" cx="-82" cy="112" opacity="0.37"></circle><circle r="3.5" cx="438" cy="-161" opacity="0.37"></circle><circle r="3.5" cx="919" cy="179" opacity="0.36"></circle><circle r="3.5" cx="833" cy="762" opacity="0.36"></circle><circle r="3.5" cx="273" cy="952" opacity="0.36"></circle><circle r="3.5" cx="-150" cy="538" opacity="0.36"></circle><circle r="3.5" cx="27" cy="-29" opacity="0.36"></circle><circle r="3.5" cx="613" cy="-128" opacity="0.36"></circle><circle r="3.5" cx="968" cy="351" opacity="0.36"></circle><circle r="3.5" cx="702" cy="885" opacity="0.36"></circle><circle r="3.5" cx="104" cy="890" opacity="0.35"></circle><circle r="3.5" cx="-172" cy="359" opacity="0.35"></circle><circle r="3.5" cx="177" cy="-130" opacity="0.35"></circle><circle r="3.5" cx="771" cy="-40" opacity="0.35"></circle><circle r="3.5" cx="962" cy="532" opacity="0.35"></circle><circle r="3.5" cx="538" cy="961" opacity="0.35"></circle><circle r="3.5" cx="-39" cy="778" opacity="0.35"></circle><circle r="3.5" cx="-137" cy="180" opacity="0.35"></circle><circle r="3.5" cx="352" cy="-179" opacity="0.34"></circle><circle r="3.5" cx="896" cy="94" opacity="0.34"></circle><circle r="3.5" cx="898" cy="704" opacity="0.34"></circle><circle r="3.5" cx="356" cy="983" opacity="0.34"></circle><circle r="3.5" cx="-141" cy="625" opacity="0.34"></circle><circle r="3.5" cx="-47" cy="20" opacity="0.34"></circle><circle r="3.5" cx="537" cy="-172" opacity="0.34"></circle><circle r="3.5" cx="973" cy="262" opacity="0.34"></circle><circle r="3.5" cx="783" cy="849" opacity="0.33"></circle><circle r="3.5" cx="174" cy="946" opacity="0.33"></circle><circle r="3.5" cx="-191" cy="446" opacity="0.33"></circle><circle r="3.5" cx="90" cy="-106" opacity="0.33"></circle><circle r="3.5" cx="711" cy="-106" opacity="0.33"></circle><circle r="3.5" cx="994" cy="448" opacity="0.33"></circle><circle r="3.5" cx="627" cy="952" opacity="0.33"></circle><circle r="3.5" cx="10" cy="854" opacity="0.33"></circle><circle r="3.5" cx="-182" cy="258" opacity="0.32"></circle><circle r="3.5" cx="262" cy="-184" opacity="0.32"></circle><circle r="3.5" cx="859" cy="12" opacity="0.32"></circle><circle r="3.5" cx="955" cy="633" opacity="0.32"></circle><circle r="3.5" cx="444" cy="1002" opacity="0.32"></circle><circle r="3.5" cx="-117" cy="713" opacity="0.32"></circle><circle r="3.5" cx="-114" cy="80" opacity="0.32"></circle><circle r="3.5" cx="452" cy="-205" opacity="0.32"></circle><circle r="3.5" cx="963" cy="171" opacity="0.31"></circle><circle r="3.5" cx="860" cy="799" opacity="0.31"></circle><circle r="3.5" cx="253" cy="992" opacity="0.31"></circle><circle r="4" cx="-195" cy="538" opacity="0.31"></circle><circle r="4" cx="6" cy="-69" opacity="0.31"></circle><circle r="4" cx="640" cy="-164" opacity="0.31"></circle><circle r="4" cx="1013" cy="358" opacity="0.31"></circle><circle r="4" cx="716" cy="928" opacity="0.31"></circle><circle r="4" cx="72" cy="922" opacity="0.30"></circle><circle r="4" cx="-215" cy="345" opacity="0.30"></circle><circle r="4" cx="170" cy="-174" opacity="0.30"></circle><circle r="4" cx="808" cy="-67" opacity="0.30"></circle><circle r="4" cx="1002" cy="552" opacity="0.30"></circle><circle r="4" cx="538" cy="1007" opacity="0.30"></circle><circle r="4" cx="-79" cy="798" opacity="0.30"></circle><circle r="4" cx="-173" cy="153" opacity="0.30"></circle><circle r="4" cx="360" cy="-224" opacity="0.29"></circle><circle r="4" cx="939" cy="80" opacity="0.29"></circle><circle r="4" cx="930" cy="736" opacity="0.29"></circle><circle r="4" cx="341" cy="1026" opacity="0.29"></circle><circle r="4" cx="-186" cy="632" opacity="0.29"></circle><circle r="4" cx="-73" cy="-17" opacity="0.29"></circle><circle r="4" cx="558" cy="-212" opacity="0.29"></circle><circle r="4" cx="1018" cy="263" opacity="0.29"></circle><circle r="4" cx="803" cy="889" opacity="0.28"></circle><circle r="4" cx="146" cy="982" opacity="0.28"></circle><circle r="4" cx="-235" cy="438" opacity="0.28"></circle><circle r="4" cx="77" cy="-150" opacity="0.28"></circle><circle r="4" cx="744" cy="-138" opacity="0.28"></circle><circle r="4" cx="1037" cy="463" opacity="0.28"></circle><circle r="4" cx="633" cy="997" opacity="0.28"></circle><circle r="4" cx="-27" cy="879" opacity="0.28"></circle><circle r="4" cx="-222" cy="237" opacity="0.27"></circle><circle r="4" cx="263" cy="-229" opacity="0.27"></circle><circle r="4" cx="900" cy="-8" opacity="0.27"></circle><circle r="4" cx="991" cy="661" opacity="0.27"></circle><circle r="4" cx="436" cy="1046" opacity="0.27"></circle><circle r="4" cx="-161" cy="726" opacity="0.27"></circle><circle r="4" cx="-146" cy="48" opacity="0.27"></circle><circle r="4" cx="467" cy="-247" opacity="0.27"></circle><circle r="4" cx="1008" cy="165" opacity="0.26"></circle><circle r="4" cx="886" cy="836" opacity="0.26"></circle><circle r="4" cx="231" cy="1032" opacity="0.26"></circle><circle r="4" cx="-241" cy="536" opacity="0.26"></circle><circle r="4" cx="-13" cy="-110" opacity="0.26"></circle><circle r="4" cx="668" cy="-200" opacity="0.26"></circle><circle r="4" cx="1058" cy="366" opacity="0.26"></circle><circle r="4" cx="729" cy="972" opacity="0.26"></circle><circle r="4" cx="39" cy="953" opacity="0.25"></circle><circle r="4" cx="-258" cy="329" opacity="0.25"></circle><circle r="4" cx="164" cy="-219" opacity="0.25"></circle><circle r="4" cx="846" cy="-92" opacity="0.25"></circle><circle r="4" cx="1042" cy="575" opacity="0.25"></circle><circle r="4" cx="536" cy="1052" opacity="0.25"></circle><circle r="4" cx="-120" cy="817" opacity="0.25"></circle><circle r="4" cx="-209" cy="125" opacity="0.25"></circle><circle r="4" cx="369" cy="-269" opacity="0.24"></circle><circle r="4" cx="983" cy="68" opacity="0.24"></circle><circle r="4" cx="961" cy="769" opacity="0.24"></circle><circle r="4" cx="325" cy="1069" opacity="0.24"></circle><circle r="4" cx="-231" cy="637" opacity="0.24"></circle><circle r="4" cx="-98" cy="-55" opacity="0.24"></circle><circle r="4" cx="580" cy="-252" opacity="0.24"></circle><circle r="4" cx="1063" cy="265" opacity="0.24"></circle><circle r="4" cx="822" cy="931" opacity="0.23"></circle><circle r="4" cx="118" cy="1018" opacity="0.23"></circle><circle r="4" cx="-280" cy="429" opacity="0.23"></circle><circle r="4" cx="65" cy="-194" opacity="0.23"></circle><circle r="4" cx="778" cy="-168" opacity="0.23"></circle><circle r="4" cx="1079" cy="479" opacity="0.23"></circle><circle r="4" cx="638" cy="1042" opacity="0.23"></circle><circle r="4" cx="-65" cy="904" opacity="0.23"></circle><circle r="4" cx="-261" cy="214" opacity="0.22"></circle><circle r="4" cx="266" cy="-275" opacity="0.22"></circle><circle r="4" cx="941" cy="-26" opacity="0.22"></circle><circle r="4" cx="1027" cy="690" opacity="0.22"></circle><circle r="4" cx="426" cy="1091" opacity="0.22"></circle><circle r="4" cx="-205" cy="737" opacity="0.22"></circle><circle r="4" cx="-176" cy="13" opacity="0.22"></circle><circle r="4" cx="483" cy="-290" opacity="0.22"></circle><circle r="4" cx="1054" cy="161" opacity="0.21"></circle><circle r="4" cx="910" cy="875" opacity="0.21"></circle><circle r="4" cx="208" cy="1071" opacity="0.21"></circle><circle r="4" cx="-286" cy="533" opacity="0.21"></circle><circle r="4" cx="-31" cy="-152" opacity="0.21"></circle><circle r="4" cx="697" cy="-235" opacity="0.21"></circle><circle r="4" cx="1102" cy="376" opacity="0.21"></circle><circle r="4.5" cx="740" cy="1016" opacity="0.21"></circle><circle r="4.5" cx="5" cy="983" opacity="0.20"></circle><circle r="4.5" cx="-300" cy="312" opacity="0.20"></circle><circle r="4.5" cx="160" cy="-265" opacity="0.20"></circle><circle r="4.5" cx="885" cy="-116" opacity="0.20"></circle><circle r="4.5" cx="1081" cy="598" opacity="0.20"></circle><circle r="4.5" cx="532" cy="1098" opacity="0.20"></circle><circle r="4.5" cx="-163" cy="835" opacity="0.20"></circle><circle r="4.5" cx="-244" cy="96" opacity="0.20"></circle><circle r="4.5" cx="379" cy="-313" opacity="0.19"></circle><circle r="4.5" cx="1027" cy="57" opacity="0.19"></circle><circle r="4.5" cx="991" cy="804" opacity="0.19"></circle><circle r="4.5" cx="308" cy="1111" opacity="0.19"></circle><circle r="4.5" cx="-276" cy="640" opacity="0.19"></circle><circle r="4.5" cx="-122" cy="-94" opacity="0.19"></circle><circle r="4.5" cx="604" cy="-290" opacity="0.19"></circle><circle r="4.5" cx="1109" cy="269" opacity="0.19"></circle><circle r="4.5" cx="839" cy="973" opacity="0.18"></circle><circle r="4.5" cx="88" cy="1053" opacity="0.18"></circle><circle r="4.5" cx="-324" cy="418" opacity="0.18"></circle><circle r="4.5" cx="55" cy="-238" opacity="0.18"></circle><circle r="4.5" cx="813" cy="-198" opacity="0.18"></circle><circle r="4.5" cx="1121" cy="497" opacity="0.18"></circle><circle r="4.5" cx="641" cy="1088" opacity="0.18"></circle><circle r="4.5" cx="-104" cy="928" opacity="0.18"></circle><circle r="4.5" cx="-300" cy="190" opacity="0.17"></circle><circle r="4.5" cx="270" cy="-320" opacity="0.17"></circle><circle r="4.5" cx="984" cy="-43" opacity="0.17"></circle><circle r="4.5" cx="1061" cy="720" opacity="0.17"></circle><circle r="4.5" cx="415" cy="1135" opacity="0.17"></circle><circle r="4.5" cx="-249" cy="747" opacity="0.17"></circle><circle r="4.5" cx="-205" cy="-22" opacity="0.17"></circle><circle r="4.5" cx="502" cy="-332" opacity="0.17"></circle><circle r="4.5" cx="1099" cy="158" opacity="0.16"></circle><circle r="4.5" cx="933" cy="914" opacity="0.16"></circle><circle r="4.5" cx="183" cy="1110" opacity="0.16"></circle><circle r="4.5" cx="-332" cy="529" opacity="0.16"></circle><circle r="4.5" cx="-47" cy="-195" opacity="0.16"></circle><circle r="4.5" cx="727" cy="-269" opacity="0.16"></circle><circle r="4.5" cx="1146" cy="388" opacity="0.16"></circle><circle r="4.5" cx="750" cy="1061" opacity="0.16"></circle><circle r="4.5" cx="-31" cy="1012" opacity="0.15"></circle><circle r="4.5" cx="-342" cy="293" opacity="0.15"></circle><circle r="4.5" cx="158" cy="-311" opacity="0.15"></circle><circle r="4.5" cx="924" cy="-139" opacity="0.15"></circle><circle r="4.5" cx="1119" cy="623" opacity="0.15"></circle><circle r="4.5" cx="527" cy="1143" opacity="0.15"></circle><circle r="4.5" cx="-205" cy="851" opacity="0.15"></circle><circle r="4.5" cx="-278" cy="65" opacity="0.15"></circle><circle r="4.5" cx="391" cy="-357" opacity="0.14"></circle><circle r="4.5" cx="1072" cy="48" opacity="0.14"></circle><circle r="4.5" cx="1019" cy="840" opacity="0.14"></circle><circle r="4.5" cx="289" cy="1152" opacity="0.14"></circle><circle r="4.5" cx="-322" cy="642" opacity="0.14"></circle><circle r="4.5" cx="-144" cy="-134" opacity="0.14"></circle><circle r="4.5" cx="630" cy="-329" opacity="0.14"></circle><circle r="4.5" cx="1155" cy="274" opacity="0.14"></circle><circle r="4.5" cx="855" cy="1016" opacity="0.13"></circle><circle r="4.5" cx="57" cy="1086" opacity="0.13"></circle><circle r="4.5" cx="-368" cy="405" opacity="0.13"></circle><circle r="4.5" cx="46" cy="-283" opacity="0.13"></circle><circle r="4.5" cx="849" cy="-226" opacity="0.13"></circle><circle r="4.5" cx="1163" cy="516" opacity="0.13"></circle><circle r="4.5" cx="643" cy="1134" opacity="0.13"></circle><circle r="4.5" cx="-145" cy="950" opacity="0.13"></circle><circle r="4.5" cx="-338" cy="164" opacity="0.12"></circle><circle r="4.5" cx="276" cy="-366" opacity="0.12"></circle><circle r="4.5" cx="1027" cy="-59" opacity="0.12"></circle><circle r="4.5" cx="1095" cy="751" opacity="0.12"></circle><circle r="4.5" cx="402" cy="1179" opacity="0.12"></circle><circle r="4.5" cx="-295" cy="756" opacity="0.12"></circle><circle r="4.5" cx="-233" cy="-58" opacity="0.12"></circle><circle r="4.5" cx="521" cy="-373" opacity="0.12"></circle><circle r="4.5" cx="1145" cy="157" opacity="0.11"></circle><circle r="4.5" cx="955" cy="955" opacity="0.11"></circle><circle r="4.5" cx="157" cy="1148" opacity="0.11"></circle><circle r="4.5" cx="-377" cy="523" opacity="0.11"></circle><circle r="4.5" cx="-63" cy="-238" opacity="0.11"></circle><circle r="4.5" cx="759" cy="-303" opacity="0.11"></circle><circle r="4.5" cx="1190" cy="401" opacity="0.11"></circle><circle r="4.5" cx="758" cy="1106" opacity="0.11"></circle><circle r="4.5" cx="-68" cy="1040" opacity="0.10"></circle><circle r="4.5" cx="-384" cy="273" opacity="0.10"></circle><circle r="4.5" cx="157" cy="-357" opacity="0.10"></circle><circle r="4.5" cx="965" cy="-161" opacity="0.10"></circle></g></svg>